<?xml version="1.0" encoding="utf-8"?>
<svg version="1.1" id="Layer_1" xmlns="http://www.w3.org/2000/svg" xmlns:xlink="http://www.w3.org/1999/xlink" x="0px" y="0px" viewBox="0 0 350 120" style="enable-background:new 0 0 350 120;" xml:space="preserve">
<style type="text/css">
	.st0{fill:#D60929;}
	.st1{fill:#B0B0B0;}
	.st2{fill:#868686;}
</style>
<g>
	<g>
		<path class="st0" d="M51,0L0,30.3V91l15.7-9.3V48.3l28,16.7v50.7L51,120l7.3-4.3V65l28-16.7v33.4L102,91V30.3L51,0z M51,52 L23,35.3l28-16.7l28,16.7L51,52z"/>
		<polygon class="st1" points="39.5,84.2 19.7,84.2 4.2,93.4 39.5,113.5"/>
		<polygon class="st1" points="82.2,84.1 62.5,84.2 62.5,113.3 97.8,93.4"/>
	</g>
	<g>
		<path class="st2" d="M128,78.2l15.2-61.3h15.1l14.8,61.3h-11.2l-3-12.9h-16.3l-3.3,12.9H128z M144.8,54.9h11.7l-5.7-24.8h-0.2 L144.8,54.9z"/>
		<polygon class="st2" points="177.4,78.2 177.4,16.8 189.1,16.8 189.1,42.2 189.3,42.2 204.5,16.8 217.3,16.8 201.5,41.6 
			219.1,78.2 205.9,78.2 193.7,52.4 189.1,59.4 189.1,78.2"/>
		<path class="st2" d="M250.1,78.2l-10.2-25h-5.6v25h-11.7V16.8h17c7.1,0,12.3,1.6,15.7,4.8c3.4,3.2,5.1,7.7,5.1,13.5
			c0,3.8-0.7,7.1-2.2,9.8c-1.4,2.7-3.8,4.6-7.1,5.9l11.6,27.3H250.1z M234.3,43.5h6c2.6,0,4.6-0.7,6.1-2c1.5-1.3,2.2-3.5,2.2-6.5
			c0-3-0.7-5.2-2.2-6.5c-1.5-1.3-3.5-2-6.1-2h-6V43.5z"/>
		<path class="st2" d="M266.7,36.5c0-3.8,0.5-7,1.4-9.6c1-2.6,2.3-4.7,4-6.3c1.7-1.6,3.7-2.8,6.1-3.5c2.4-0.7,5-1.1,7.8-1.1
			c2.8,0,5.4,0.4,7.8,1.1c2.4,0.7,4.4,1.9,6.1,3.5c1.7,1.6,3,3.7,4,6.3c1,2.6,1.4,5.8,1.4,9.6v21.9c0,3.8-0.5,7-1.4,9.6
			c-1,2.6-2.3,4.7-4,6.3c-1.7,1.6-3.7,2.8-6.1,3.5c-2.4,0.7-5,1.1-7.8,1.1c-2.8,0-5.4-0.4-7.8-1.1c-2.4-0.7-4.4-1.9-6.1-3.5
			c-1.7-1.6-3-3.7-4-6.3c-1-2.6-1.4-5.8-1.4-9.6V36.5z M278.4,60c0,3.4,0.7,5.7,2,6.9c1.4,1.2,3.2,1.8,5.6,1.8
			c2.4,0,4.3-0.6,5.6-1.8c1.4-1.2,2-3.5,2-6.9V35c0-3.4-0.7-5.7-2-6.9c-1.4-1.2-3.2-1.8-5.6-1.8c-2.4,0-4.3,0.6-5.6,1.8 c-1.4,1.2-2,3.5-2,6.9V60z"/>
		<path class="st2" d="M338.9,33.9c-1-2.9-2.1-5-3.5-6.3c-1.4-1.3-3.1-2-5.1-2c-2.1,0-3.7,0.6-4.8,1.8c-1.1,1.2-1.7,2.8-1.7,4.9
			c0,1.5,0.7,2.9,2,4c1.3,1.2,2.9,2.3,4.8,3.4c1.9,1.1,4,2.2,6.3,3.4c2.3,1.2,4.4,2.6,6.3,4.3c1.9,1.6,3.5,3.6,4.8,5.9
			c1.3,2.3,2,5,2,8.2c0,2.7-0.4,5.1-1.3,7.2c-0.9,2.2-2.2,4-3.8,5.5c-1.7,1.5-3.7,2.7-6.2,3.5c-2.4,0.8-5.2,1.2-8.3,1.2
			c-4.8,0-9-1.4-12.5-4.1c-3.5-2.7-6-7.1-7.6-13.2l11.6-2.5c0.3,1.9,0.8,3.4,1.5,4.7c0.7,1.3,1.4,2.3,2.3,3.1
			c0.9,0.8,1.7,1.4,2.7,1.7c0.9,0.3,1.8,0.5,2.7,0.5c2,0,3.8-0.6,5.1-1.9c1.4-1.3,2.1-3.1,2.1-5.4c0-1.9-0.7-3.6-2-5
			c-1.3-1.4-2.9-2.7-4.9-3.9c-1.9-1.2-4-2.4-6.3-3.5c-2.3-1.2-4.4-2.5-6.3-4c-1.9-1.5-3.5-3.2-4.8-5.2c-1.3-2-2-4.4-2-7.3
			c0-5.3,1.5-9.5,4.6-12.6c3.1-3.1,7.7-4.6,13.8-4.6c2.6,0,5,0.4,7.1,1.1c2.1,0.7,3.9,1.8,5.5,3.1c1.6,1.3,2.9,2.9,4,4.7
			c1,1.8,1.8,3.8,2.3,5.9L338.9,33.9z"/>
	</g>
	<g>
		<polygon class="st1" points="150.8,87.1 150.8,119.6 145.9,119.6 145.9,94.2 145.8,94.2 140.7,119.6 138,119.6 133,94.2 
			132.9,94.2 132.9,119.6 128,119.6 128,87.1 135.4,87.1 139.3,106.1 139.4,106.1 143.4,87.1"/>
		<path class="st1" d="M158.7,119.6h-5.4l6-32.4h7l6,32.4h-5.4l-1-7.2h-6.1L158.7,119.6z M160.5,107.5h4.5l-2.2-13.9h-0.1 L160.5,107.5z"/>
		<path class="st1" d="M180.6,119.6H175V87.1h7.9c3.1,0,5.5,0.7,7.1,2.2c1.6,1.5,2.4,3.9,2.4,7.4c0,1.3-0.1,2.4-0.3,3.4
			c-0.2,0.9-0.5,1.7-0.9,2.4c-0.4,0.6-0.8,1.2-1.3,1.6c-0.5,0.4-0.9,0.7-1.4,0.9l4.7,14.7h-5.7l-4-13.4c-0.4,0.1-0.8,0.1-1.3,0.1
			c-0.5,0-1,0-1.6,0V119.6z M180.6,101.7h2c0.8,0,1.4-0.1,1.9-0.2c0.5-0.1,1-0.4,1.3-0.8c0.3-0.4,0.6-0.9,0.7-1.6
			c0.2-0.6,0.2-1.4,0.2-2.4c0-1.9-0.3-3.2-0.9-3.9c-0.6-0.7-1.7-1.1-3.2-1.1h-2V101.7z"/>
		<polygon class="st1" points="196.9,119.6 196.9,87.1 202.5,87.1 202.5,99.1 202.6,99.1 208.4,87.1 214,87.1 208,99.2 214.8,119.6 
			209.1,119.6 204.6,104.5 204.5,104.5 202.5,108 202.5,119.6"/>
		<polygon class="st1" points="216.7,119.6 216.7,87.1 231.7,87.1 231.7,92 222.3,92 222.3,100.3 229.6,100.3 229.6,105.2 
			222.3,105.2 222.3,114.7 232.4,114.7 232.4,119.6"/>
		<polygon class="st1" points="239.6,92 234.2,92 234.2,87.1 250.6,87.1 250.6,92 245.2,92 245.2,119.6 239.6,119.6"/>
		<path class="st1" d="M253.4,119.6V87.1h8c3.5,0,6,0.7,7.6,2.2c1.6,1.5,2.5,3.9,2.5,7.4c0,1.7-0.2,3.2-0.6,4.4
			c-0.4,1.2-1,2.2-1.9,3c-0.8,0.8-1.9,1.3-3.2,1.7c-1.3,0.3-2.8,0.5-4.5,0.5H259v13.3H253.4z M259,101.7h2.2c0.9,0,1.7-0.1,2.3-0.2
			c0.6-0.1,1.1-0.4,1.5-0.8c0.4-0.4,0.6-0.9,0.8-1.6c0.2-0.6,0.2-1.4,0.2-2.4c0-1-0.1-1.8-0.2-2.4c-0.2-0.6-0.4-1.2-0.8-1.5
			c-0.4-0.4-0.9-0.6-1.5-0.8c-0.6-0.2-1.4-0.2-2.3-0.2H259V101.7z"/>
		<polygon class="st1" points="275.3,119.6 275.3,87.1 280.9,87.1 280.9,114.7 289.7,114.7 289.7,119.6"/>
		<path class="st1" d="M295.9,119.6h-5.4l6-32.4h7l6,32.4H304l-1-7.2h-6.1L295.9,119.6z M297.7,107.5h4.5L300,93.6h-0.1L297.7,107.5
			z"/>
		<path class="st1" d="M323.5,97.9v-2.5c0-1.4-0.3-2.4-0.8-3c-0.5-0.6-1.2-0.9-1.9-0.9c-1.1,0-1.9,0.3-2.3,0.9
			c-0.4,0.6-0.6,1.5-0.6,2.7v16.4c0,1.2,0.2,2.1,0.6,2.7c0.4,0.6,1.2,0.9,2.3,0.9c1,0,1.7-0.3,2.1-0.9c0.4-0.6,0.6-1.4,0.6-2.4V108
			h5.6v3.7c0,1.1-0.2,2.2-0.5,3.2c-0.3,1-0.9,1.9-1.5,2.7c-0.7,0.7-1.5,1.3-2.6,1.8c-1.1,0.4-2.3,0.7-3.7,0.7
			c-1.5,0-2.7-0.2-3.8-0.7c-1.1-0.4-2-1-2.7-1.8c-0.7-0.7-1.2-1.6-1.6-2.7c-0.3-1-0.5-2.1-0.5-3.2V95c0-1.1,0.2-2.2,0.5-3.2
			c0.3-1,0.9-1.9,1.6-2.7c0.7-0.7,1.6-1.3,2.7-1.8c1.1-0.4,2.3-0.7,3.8-0.7c1.4,0,2.6,0.2,3.7,0.7s1.9,1.1,2.6,1.9
			c0.7,0.8,1.2,1.8,1.5,2.8c0.3,1.1,0.5,2.2,0.5,3.4v2.4H323.5z"/>
		<polygon class="st1" points="334.4,119.6 334.4,87.1 349.4,87.1 349.4,92 340,92 340,100.3 347.2,100.3 347.2,105.2 340,105.2 340,114.7 350,114.7 350,119.6"/>
	</g>
</g>
</svg>
